<?xml version="1.0" encoding="utf-8"?>
<!-- Generator: Adobe Illustrator 28.3.0, SVG Export Plug-In . SVG Version: 6.00 Build 0)  -->
<svg version="1.1" id="Layer_1" xmlns="http://www.w3.org/2000/svg" xmlns:xlink="http://www.w3.org/1999/xlink" x="0px" y="0px"
	 viewBox="0 0 1000 250" style="enable-background:new 0 0 1000 250;" xml:space="preserve">
<style type="text/css">
	.st0{fill:#275765;}
	.st1{fill:url(#SVGID_1_);}
	.st2{fill:url(#SVGID_00000103945251827320046900000008729152954545975225_);}
</style>
<g>
	<path class="st0" d="M108.7,102.9v22.9h-95v-22.9H108.7z M74.6,102.9v137.2H47.1V102.9H74.6z"/>
	<path class="st0" d="M194,101h27.5v94.2c0,10.6-1.9,19.1-5.8,25.8c-3.9,6.6-9.2,11.5-16,14.5c-6.8,3-14.5,4.6-23.3,4.6
		c-8.8,0-16.6-1.5-23.5-4.6c-6.8-3-12.2-7.9-16-14.5c-3.8-6.6-5.7-15.2-5.7-25.8V101h27.5v94.2c0,6,0.7,10.6,2,13.8
		c1.4,3.2,3.3,5.4,5.9,6.5c2.6,1.2,5.8,1.7,9.7,1.7c3.9,0,7.1-0.6,9.7-1.7c2.5-1.2,4.5-3.3,5.8-6.5c1.4-3.2,2-7.8,2-13.8V101z"/>
	<path class="st0" d="M308.3,202.1c0-2.4-0.2-4.7-0.7-6.7c-0.4-2-1.4-3.9-2.8-5.6c-1.4-1.7-3.5-3.4-6.1-5.1
		c-2.7-1.7-6.1-3.5-10.4-5.3c-5.1-2.1-10-4.4-14.8-6.8c-4.8-2.4-9.1-5.2-12.9-8.4c-3.8-3.2-6.9-7-9.1-11.4
		c-2.2-4.4-3.3-9.5-3.3-15.4c0-5.8,1.1-11,3.2-15.7c2.1-4.7,5.1-8.7,9-12.1c3.9-3.4,8.5-6,13.7-7.8c5.2-1.8,11.1-2.7,17.6-2.7
		c8.8,0,16.4,1.8,22.9,5.5c6.4,3.6,11.4,8.6,15,15c3.5,6.3,5.3,13.6,5.3,21.9h-27.5c0-3.9-0.6-7.3-1.6-10.3c-1.1-3-2.8-5.3-5.2-7
		c-2.4-1.7-5.5-2.5-9.2-2.5c-3.5,0-6.4,0.7-8.7,2.1c-2.3,1.4-4,3.3-5.1,5.7c-1.1,2.4-1.6,5.1-1.6,8.2c0,2.3,0.5,4.3,1.6,6.1
		c1.1,1.8,2.6,3.4,4.6,4.8c1.9,1.4,4.3,2.8,6.9,4.1c2.7,1.3,5.6,2.6,8.8,3.9c6.2,2.5,11.7,5.1,16.5,8.1c4.8,2.9,8.8,6.2,12,9.8
		c3.2,3.6,5.6,7.7,7.3,12.2c1.6,4.5,2.5,9.7,2.5,15.5c0,5.7-1,10.9-3,15.6c-2,4.7-4.9,8.7-8.6,12.1c-3.8,3.4-8.3,6-13.6,7.8
		c-5.3,1.8-11.2,2.7-17.8,2.7c-6.3,0-12.3-0.9-18-2.7c-5.7-1.8-10.6-4.5-14.9-8.2c-4.3-3.7-7.7-8.4-10.1-14
		c-2.5-5.7-3.7-12.4-3.7-20.2h27.6c0,4.1,0.4,7.7,1.2,10.6c0.8,2.9,2.1,5.2,3.8,7c1.7,1.7,3.8,3,6.3,3.9c2.5,0.8,5.3,1.3,8.5,1.3
		c3.6,0,6.5-0.7,8.7-2.1c2.2-1.4,3.7-3.2,4.7-5.6C307.8,207.7,308.3,205.1,308.3,202.1z"/>
	<path class="st0" d="M583.2,102.9v137.2h-27.6V102.9H583.2z M634.1,102.9v22.9h-59.5v-22.9H634.1z M626.2,158.5v22.1h-51.6v-22.1
		H626.2z M634.3,217.3v22.8h-59.7v-22.8H634.3z"/>
	<path class="st0" d="M658.1,102.9h44c9.2,0,17,1.6,23.5,4.7c6.5,3.1,11.4,7.8,14.9,13.9c3.5,6.2,5.2,13.8,5.2,22.8
		c0,7.4-1,13.7-3,19c-2,5.2-4.9,9.6-8.6,13.1c-3.7,3.5-8.1,6.3-13.3,8.3l-8.4,5h-35.7l-0.1-22.9h24.8c3.8,0,6.9-0.8,9.4-2.5
		c2.5-1.7,4.3-4,5.6-7.1c1.2-3,1.8-6.6,1.8-10.7c0-4.3-0.6-8.1-1.6-11.2c-1.1-3.1-2.8-5.5-5.2-7.2c-2.4-1.7-5.4-2.5-9.2-2.5h-16.4
		v114.3h-27.6V102.9z M720.4,240.1L695.2,179l28.9-0.1l25.7,59.9v1.3H720.4z"/>
	<path class="st0" d="M884.3,127.4l-29.5,112.7h-29.1l42.9-137.2h18.2L884.3,127.4z M908.7,188.9v22.9h-61.9v-22.9H908.7z
		 M907.6,240.1l-29.7-112.7l-2.7-24.5h18.5l43.3,137.2H907.6z"/>
	<path class="st0" d="M986.3,102.9v137.2h-27.4V102.9H986.3z"/>
	<g>
		<linearGradient id="SVGID_1_" gradientUnits="userSpaceOnUse" x1="360.9927" y1="146.7435" x2="391.7476" y2="93.4744">
			<stop  offset="1.385225e-07" style="stop-color:#286070"/>
			<stop  offset="0.3279" style="stop-color:#1C7A85"/>
			<stop  offset="1" style="stop-color:#209196"/>
		</linearGradient>
		<polygon class="st1" points="399.8,98.1 363.9,98.1 363.9,148.4 399.8,123.1 		"/>
		
			<linearGradient id="SVGID_00000102506422675402736270000013094286779435852715_" gradientUnits="userSpaceOnUse" x1="437.5678" y1="197.8384" x2="530.2395" y2="37.3262">
			<stop  offset="1.385225e-07" style="stop-color:#286070"/>
			<stop  offset="0.3279" style="stop-color:#1C7A85"/>
			<stop  offset="1" style="stop-color:#209196"/>
		</linearGradient>
		<path style="fill:url(#SVGID_00000102506422675402736270000013094286779435852715_);" d="M516.8,121.5c4.4-1.3,7.7-4.7,14.2-11.7
			c8.6-9.1,11.9-19.8,13.1-23.9c4.5-15,2.4-27.9,1-34C543.6,45.6,541,35,532,25.3c-2.7-2.9-12.7-13.7-27.9-15.2
			c-8.5-0.9-16.6,1.3-16.6,1.8c0,0.2,2,0,5.1,0.9c2.4,0.6,4.2,1.5,5.9,2.4c2.5,1.3,4.3,2.5,5.5,3.3c0.6,0.4,2.2,1.5,3.7,2.8
			c4.9,4,7.9,8.9,9.3,11.4c0.4,0.6,2.3,4.1,3.6,8.5c4.7,15.5-0.9,29-0.9,29c-5.6,13.4-17.5,19.3-24.5,22.8
			c-6.2,3.1-11.8,4.2-22.8,6.6c-5.8,1.2-12.5,2.6-21.5,3.1c-8.5,0.5-19.5,0.2-19.5,0.2c0,0-5.3,5.8-5.6,6.1
			c-4.7,5.1-13.1,14.4-22.9,23.5c-10,9.3-15.1,14.1-23.6,18.9c-6.2,3.5-11.6,5.6-15.4,6.8l-0.1,0c0,27,0,54,0,80.9h36v-44h23.1
			l8.8,6.4l12.1,10.9l13.3,14.9l8.6,12.9h43.9c0,0-46.1-36.4-36.7-62.4c2.9-8.1,10.9-12.6,10.9-12.6c4.1-3.2,6.5-3.9,11.8-8.7
			c4.1-3.6,6.1-6.4,7-7.7c0.1-0.2,1.2-2.8,3.3-5.5c0.5-0.6,1.1-1.3,2.2-1.9c1.5-0.8,2.9-0.8,3.2-0.9c4.6-0.2,26.2-14,25.5-15
			c-0.4-0.6-7,4.7-18,5.7c-1.9,0.2-8.8,0.8-9.9-1.8c-0.6-1.5,1-3.6,1.4-4.2C512.8,122.5,515.9,121.7,516.8,121.5z"/>
	</g>
</g>
</svg>
